<?xml version="1.0" standalone="no"?>
<!DOCTYPE svg PUBLIC "-//W3C//DTD SVG 20010904//EN"
 "http://www.w3.org/TR/2001/REC-SVG-20010904/DTD/svg10.dtd">
<svg version="1.0" xmlns="http://www.w3.org/2000/svg"
 width="512.000000pt" height="512.000000pt" viewBox="0 0 512.000000 512.000000"
 preserveAspectRatio="xMidYMid meet">
<metadata>
Created by potrace 1.14, written by Peter Selinger 2001-2017
</metadata>
<g transform="translate(0.000000,512.000000) scale(0.100000,-0.100000)"
fill="#000000" stroke="none">
<path d="M2315 5109 c-545 -53 -1079 -290 -1476 -657 -420 -388 -694 -875
-794 -1416 -132 -719 38 -1440 479 -2025 92 -123 284 -322 411 -426 502 -412
1154 -623 1787 -577 363 26 643 101 963 257 268 131 460 269 681 489 220 221
358 413 489 681 156 320 231 600 257 962 44 601 -140 1210 -515 1713 -93 124
-365 396 -489 488 -525 392 -1157 572 -1793 511z m333 -1068 c21 -11 373 -356
798 -783 618 -619 764 -770 774 -802 25 -80 -14 -177 -86 -211 -46 -21 -121
-22 -160 -2 -16 9 -337 324 -714 701 -377 377 -689 686 -695 686 -5 0 -325
-315 -710 -699 -770 -770 -731 -736 -827 -710 -60 16 -93 42 -117 92 -26 53
-26 100 -2 152 22 46 1526 1552 1576 1579 42 21 118 20 163 -3z m798 -1477
l244 -251 0 -627 0 -626 -340 0 -340 0 0 435 c0 415 -1 437 -21 490 -25 68
-101 153 -173 194 -224 128 -533 48 -638 -167 l-33 -67 -3 -442 -3 -443 -339
0 -340 0 1 628 0 627 557 568 557 569 313 -319 c172 -175 423 -431 558 -569z"/>
</g>
</svg>
